<?xml version="1.0" encoding="UTF-8" standalone="no"?>
<svg
   xmlns:dc="http://purl.org/dc/elements/1.1/"
   xmlns:cc="http://creativecommons.org/ns#"
   xmlns:rdf="http://www.w3.org/1999/02/22-rdf-syntax-ns#"
   xmlns:svg="http://www.w3.org/2000/svg"
   xmlns="http://www.w3.org/2000/svg"
   viewBox="0 0 816 1056"
   height="1056"
   width="816"
   xml:space="preserve"
   id="svg2"
   version="1.1"><metadata
     id="metadata8"><rdf:RDF><cc:Work
         rdf:about=""><dc:format>image/svg+xml</dc:format><dc:type
           rdf:resource="http://purl.org/dc/dcmitype/StillImage" /></cc:Work></rdf:RDF></metadata><defs
     id="defs6" /><g
     transform="matrix(1.3333333,0,0,-1.3333333,0,1056)"
     id="g10"><g
       transform="scale(1,-1)"
       id="g12"><path
         id="path14"
         style="fill:#ffffff;fill-opacity:1;fill-rule:nonzero;stroke:none"
         d="m 307.32031,-740.54785 c -0.61572,-0.0107 -1.21338,0.002 -1.84326,0.0312 -23.33398,1.06055 -35.38574,19.25 -39.59375,34.28125 -4.56934,16.32324 -1.29785,26.62402 -4.96875,31.46875 -9.08594,11.98926 -34.56934,22.08691 -50.6875,25.71875 0,0 2.69922,19.14453 6.8125,30.5625 4.11328,11.41797 8.875,18.59375 5.875,35.59375 -3,17 -26.85059,64.07617 -46,104.875 -22.13818,47.16699 -54.15478,118.00781 -54,204.125 0.0591,32.93066 4.07178,63.07617 9.59375,89 0.65772,1.03906 1.08203,1.93847 1.21875,2.71875 2.03223,11.57031 39.11621,39.41308 96.4375,45.15625 51.1084,5.12012 81.25537,-3.83496 80.96826,-52.3125 -0.53711,-90.87891 -73.18115,-183.16406 -69.99951,-240.78125 6.87012,-123.65235 99.69483,-213.19531 98.28076,-271.53125 -0.49023,-20.22852 -12.98633,-38.60938 -32.09375,-38.90625 0,0 0,0 0,0 z" /><path
         id="path16"
         style="fill:#8cadcb;fill-opacity:1;fill-rule:nonzero;stroke:none"
         d="m 286.30322,-761.3916 c -21,0 -44.49804,7.47949 -57,23.75 -18.25,23.75 -20,64.1875 -20,64.1875 0,0 -17.5,5.5625 -13.5,16.5625 3.45996,9.51562 11.60742,8.46289 13.75,8 0.0254,-0.0107 0.0674,-0.0254 0.0928,-0.0312 0.29004,-0.0654 0.46875,-0.125 0.46875,-0.125 16.11816,-3.63184 41.60156,-13.72949 50.6875,-25.71875 3.67089,-4.84375 0.39941,-15.14551 4.96875,-31.46875 4.208,-15.03125 16.25976,-33.2207 39.59375,-34.28125 20.16064,-0.91602 33.43213,17.99414 33.93798,38.875 1.41407,58.33594 -91.41162,147.8789 -98.28173,271.53125 -3.18067,57.61719 69.46338,149.90234 70.00048,240.78125 0.28711,48.47754 -29.86084,57.43262 -80.96923,52.3125 -57.3208,-5.74317 -94.40479,-33.58594 -96.43702,-45.15625 -0.1372,-0.78028 -0.56103,-1.67969 -1.21875,-2.71875 12.28223,57.65625 32,94.40625 32,94.40625 0,0 -34.34765,9.31836 -33.34375,16.09375 0.72217,4.87695 41.29639,23.19336 46.09375,22.53125 5.4419,-0.75098 26.17334,-24.02149 36.65577,-27.03125 12.8916,-3.70215 175.21728,14.68262 188.00048,23.25 3.73633,2.5039 0.82227,23.49609 9,29.75 4.25,3.25 70.88868,-6.92969 74,-11 2.44727,-3.20313 -24.4375,-23 -24.4375,-23 10.51758,-24.55371 23.1836,-46.6582 22.4375,-107 -1.16015,-93.87793 -39,-188.61719 -78.01562,-251.25391 22.73437,4.36328 66.01562,-7.24609 66.26562,-14.99609 0.29102,-8.9961 -16.25,-11.75 -23.25,-12.75 -7,-1 -61.68945,-31.50488 -87,-57.25 -3.63476,-13.91016 -5.41015,-26.48731 -4.75,-48.5 0.75,-25 12.75,-87 13.75,-129.25 0.85352,-36.0459 -22.75,-79.5 -83.49951,-80.5 z" /><path
         id="path18"
         style="fill:#8cadcb;fill-opacity:1;fill-rule:nonzero;stroke:none"
         d="m 176.43848,-476.92285 c -17.55567,4.6914 -45.39649,13.46387 -45.5,22.03125 -0.0913,7.52246 19.30371,7.15527 32.71875,6 4.40869,-10.09473 8.74902,-19.4336 12.78125,-28.03125 z" /><path
         id="path20"
         style="fill:none;stroke:#000000;stroke-width:10.1953001;stroke-linecap:round;stroke-linejoin:miter;stroke-miterlimit:2.81799006;stroke-dasharray:none;stroke-opacity:1"
         d="m 404.78711,-418.14551 c 31.41797,55.25196 67.0957,123.71387 77.59375,221.27344 5.72461,53.17285 -4.89063,111.29297 -22.01563,136.98047 20.60352,17.8457 29.875,23.4209 26.29102,24.66601 -6.32227,2.20313 -68.96289,11.54297 -73.86133,9.0918 -11.36914,-5.68164 -4.40429,-24.61133 -11.13281,-30.09375 -10.62109,-8.66211 -148.77686,-22.85547 -174.88818,-23.23437 -25.0586,-0.36817 -20.28516,8.53125 -48.92334,27.62109 -6.36475,0.9082 -48.16309,-19.09668 -46.81934,-22.98731 1.69629,-4.91113 11.81689,-8.83496 33.36621,-15.64257 -10.82764,-28.24512 -37.56689,-83.64551 -41.02002,-170.09766 -5.8125,-145.32812 82.5752,-250.87793 85.66699,-295.09961" /><path
         id="path22"
         style="fill:none;stroke:#000000;stroke-width:10.1953001;stroke-linecap:round;stroke-linejoin:miter;stroke-miterlimit:2.81799006;stroke-dasharray:none;stroke-opacity:1"
         d="m 210.02197,-673.46094 c 1.65528,-40.19824 19.00391,-79.80273 52.57032,-85.35937 68.44873,-11.33496 101.01318,24.50097 107.13037,69.02832 6.54492,47.58789 -25.38282,127.0332 -8.20899,186.65625" /><path
         id="path24"
         style="fill:none;stroke:#000000;stroke-width:10.1953001;stroke-linecap:round;stroke-linejoin:miter;stroke-miterlimit:2.81799006;stroke-dasharray:none;stroke-opacity:1"
         d="m 221.95068,-611.55371 c -5.81152,-10.37695 -9.50195,-23.34473 -11.13183,-37.48535" /><path
         id="path26"
         style="fill:none;stroke:#000000;stroke-width:10.1953001;stroke-linecap:round;stroke-linejoin:miter;stroke-miterlimit:2.81799006;stroke-dasharray:none;stroke-opacity:1"
         d="m 177.52686,-478.00293 c -25.79883,8.94238 -48.08252,15.65137 -48.08252,23.47266 0,7.82519 28.1455,5.58789 35.18359,3.35351" /><path
         id="path28"
         style="fill:none;stroke:#000000;stroke-width:10.1953001;stroke-linecap:round;stroke-linejoin:miter;stroke-miterlimit:2.81799006;stroke-dasharray:none;stroke-opacity:1"
         d="m 242.30615,-681.5498 c -9.73926,-0.38965 -22.61328,3.54003 -31.88574,8.02929 -4.72949,2.28711 -8.51953,4.72071 -10.48437,6.79883 -5.81836,6.16016 0.48535,16.29102 5.87304,17.95605 0.9336,0.28907 2.53223,0.20801 4.56836,-0.13964 9.65723,-1.65625 29.04785,-9.35645 33.22852,-12.20313 5.06445,-3.44726 16.7832,-7.00098 18.2207,-18.625 1.16895,-32.41406 16.41406,-62.59082 44.09375,-60.35742 34.05029,2.75098 37.20068,42.61133 30.96436,62.5918 -12.90039,41.35547 -83.27295,128.53613 -95.94873,237.08789 -8.61719,73.74511 103.25927,209.69238 59.99316,285.9707 -23.45996,41.35645 -162.31885,3.42285 -167.30371,-27.71582" /><path
         id="path30"
         style="fill:none;stroke:#000000;stroke-width:10.1953001;stroke-linecap:round;stroke-linejoin:miter;stroke-miterlimit:2.81799006;stroke-dasharray:none;stroke-opacity:1"
         d="m 361.51367,-503.13574 c 12.93164,16.16992 78.15039,56.64551 91.05664,57.76172 12.89844,1.12011 29.3125,14.53027 11.72071,19.00097 -14.60157,3.71582 -38.91993,10.51075 -59.50391,8.22754 0,0 0,0 0,0 -21.54297,-3.01465 -55.42578,-18.28613 -55.42578,-18.28613" /><path
         id="path32"
         style="fill:#000000;fill-opacity:1;fill-rule:nonzero;stroke:none"
         d="m 319.77344,-691.39648 c -6.58789,3.69335 -15.91162,-0.4004 -20.81397,-9.1504 -4.90722,-8.74316 -3.53711,-18.8291 3.04981,-22.52246 6.58838,-3.69921 15.90869,0.39454 20.81103,9.14356 4.90625,8.74609 3.54102,18.83008 -3.04687,22.5293 z" /></g></g></svg>